<svg width="640" height="512" xmlns="http://www.w3.org/2000/svg" class="svg-inline--fa fa-code fa-w-20">

 <g>
  <title>Layer 1</title>
  <path id="svg_1" d="m281.9,511.5l-61,-17.7c-6.4,-1.8 -10,-8.5 -8.2,-14.9l136.5,-470.2c1.8,-6.4 8.5,-10 14.9,-8.2l61,17.7c6.4,1.8 10,8.5 8.2,14.9l-136.5,470.2c-1.9,6.4 -8.5,10.1 -14.9,8.2zm-114,-112.2l43.5,-46.4c4.6,-4.9 4.3,-12.7 -0.8,-17.2l-90.6,-79.7l90.6,-79.7c5.1,-4.5 5.5,-12.3 0.8,-17.2l-43.5,-46.4c-4.5,-4.8 -12.1,-5.1 -17,-0.5l-144.1,135c-5.1,4.7 -5.1,12.8 0,17.5l144.1,135.1c4.9,4.6 12.5,4.4 17,-0.5zm327.2,0.6l144.1,-135.1c5.1,-4.7 5.1,-12.8 0,-17.5l-144.1,-135.2c-4.8,-4.5 -12.4,-4.3 -17,0.5l-43.5,46.4c-4.6,4.9 -4.3,12.7 0.8,17.2l90.6,79.8l-90.6,79.7c-5.1,4.5 -5.5,12.3 -0.8,17.2l43.5,46.4c4.5,4.9 12.1,5.1 17,0.6z" fill="#ffffff"/>
 </g>
</svg>